<svg xmlns="http://www.w3.org/2000/svg" viewBox="0 0 512 512" role="img" aria-labelledby="title">
  <title id="title">Ícone provisório do Meu Ritmo</title>
  <rect width="512" height="512" rx="112" fill="#30352d"/>
  <path d="M132 112h248c24 0 44 20 44 44v230c0 24-20 44-44 44H132c-24 0-44-20-44-44V156c0-24 20-44 44-44Z" fill="#f6f3e7" stroke="#d9e3b8" stroke-width="18"/>
  <path d="M154 204h204M154 270h132M154 336h166" fill="none" stroke="#747c60" stroke-linecap="round" stroke-width="24"/>
  <path d="m350 230 14 31 31 14-31 14-14 31-14-31-31-14 31-14 14-31Z" fill="#d9e3b8" stroke="#30352d" stroke-linejoin="round" stroke-width="10"/>
  <path d="M172 82v62M340 82v62" stroke="#d9e3b8" stroke-linecap="round" stroke-width="26"/>
</svg>
